/* XPM */
static char * pcatk_xpm[] = {
"48 48 63 1",
" 	c None",
".	c #00FF00",
"+	c #FFFF00",
"@	c #10FF00",
"#	c #3EFF00",
"$	c #FFAC00",
"%	c #FFFC00",
"&	c #FFFD00",
"*	c #FFAA00",
"=	c #FF3800",
"-	c #FF8400",
";	c #FF0000",
">	c #79FD00",
",	c #FFFE00",
"'	c #FF9900",
")	c #FF3F00",
"!	c #D9FC00",
"~	c #FF9000",
"{	c #FF3900",
"]	c #F9FD00",
"^	c #F9FE00",
"/	c #FF4800",
"(	c #F4FE00",
"_	c #F7FD00",
":	c #00FFFF",
"<	c #00FFBA",
"[	c #00FF96",
"}	c #F5FD00",
"|	c #F0FF00",
"1	c #00FFFE",
"2	c #00FFFD",
"3	c #00FFFC",
"4	c #0000FF",
"5	c #0600FF",
"6	c #0400FF",
"7	c #FF00FF",
"8	c #0100FF",
"9	c #FF006E",
"0	c #00F3FF",
"a	c #00D6FF",
"b	c #0444FF",
"c	c #FF009F",
"d	c #FF008C",
"e	c #FF00D9",
"f	c #FF00D4",
"g	c #FF00C3",
"h	c #0073FF",
"i	c #007DFF",
"j	c #004CFF",
"k	c #00CEFF",
"l	c #006CFF",
"m	c #0039FF",
"n	c #FF00B6",
"o	c #FF00A5",
"p	c #FF00C7",
"q	c #0046FF",
"r	c #00B8FF",
"s	c #0065FF",
"t	c #0300FF",
"u	c #D200FF",
"v	c #4900FF",
"w	c #0200FF",
"x	c #1B00FF",
"                                                ",
"        .    .                     ++           ",
"      ..........            +  +++              ",
"     .. ........ .       +++++++ ++++++         ",
"    . ............ .    +++++++++++++++         ",
"      ............  ..   +++++++++ ++++         ",
"   .  ...... ...... .@  +++++++++++++++         ",
"     ... .. .....    #  ++++++++++++++          ",
"      .. .........   # ++++++++++++++++         ",
"     .. ...... ....    +++++++++++$+++++        ",
"     ........ .....    % &&+++++++*=- +  ;;     ",
"      ....... ... .. .>%%,&&,+++++'  ;)   ;;  ; ",
"      ....... ... ... ! %%%%,+ +++~;  ;;  ;  ;  ",
"     ..  . ........     %  %++ &  { ;;;; ;;     ",
"     . . ...  ..... .   %%%]^  %  /  ;;; ;;;    ",
"        ............  %   %(_  &    ;;;;;;;  ;; ",
"       :<[  .   . ...     } %       ;;;;;;;;;;; ",
"    : ::  :::     ...          + ;;;;;;;;;;;;;  ",
"     : ::: ::::    ..        %  ;; ;;;;;;;;;;;; ",
"    :::::  :::::         ||  %  ;; ;;;;;;;;;;;  ",
"   :::::: ::: :1 :       |    ;;;;;;;; ;;;;;;;; ",
"  :: :::::::: :123            ;;; ;;;;;;;;;;;;; ",
"  :: :::::::::1 23   .   ;     ;;;;;;;;;;;;;;;; ",
"  :: :::::::::22233       ;;; ;;;;;;;;;;;;;;;;;;",
" :::::::::::::::2         ;;     ;;;;;;;;;;;;;  ",
"  :::: ::::::  :                  ; ;;;;;;;;;;  ",
"   ::: :::::  :: :     4          ;;;;;;;;;;;   ",
"  ::::  ::: : ::   5556   77  7    ;   ;;;;;;   ",
"  :: ::: ::::::    55 8    7  77    9  ;; ;     ",
"  : ::::    ::0  ab  44    7777 777cdef   g     ",
"     :  :h ih jklm        777  7777no7 77 p     ",
"         qrs4444   t 6  5    77777777 77        ",
"       44444444444488t   u777777777777777 7     ",
"       44444444444444   v  7 7777777777777      ",
"        44444444444  w5   77 77777777777777     ",
"      4 4444 444444 t8  x777777777777777777     ",
"     4444444 4444 44 4 57 777777 7777  777 7    ",
"     444 44444444444445  77777 7777777777  7    ",
"     4 4 4444 4444444 5   777777777 77777       ",
"       44444444444444  5  7 777777777 7777      ",
"      44444444444444445    77777 777777777      ",
"       4444444444444465    7777 7777 7777       ",
"      44444444444  44       77777 7 7777        ",
"       444 44444 444  5     777777777           ",
"           44  4444444          77              ",
"           4   444              77              ",
"                                                ",
"                                                "};
